<mxfile host="app.diagrams.net" modified="2023-10-11T11:17:47.571Z" agent="Mozilla/5.0 (X11; Ubuntu; Linux x86_64; rv:109.0) Gecko/20100101 Firefox/118.0" etag="fzHnN5rqqEbcufUE3R1l" version="22.0.4" type="google">
  <diagram name="Страница — 1" id="ayIiPRhWR7hCKisW7bex">
    <mxGraphModel grid="1" page="1" gridSize="10" guides="1" tooltips="1" connect="1" arrows="1" fold="1" pageScale="1" pageWidth="827" pageHeight="1169" math="0" shadow="0">
      <root>
        <mxCell id="0" />
        <mxCell id="1" parent="0" />
        <mxCell id="Rtu0G7_exBjI5bwSWY3L-52" value="" style="rounded=1;whiteSpace=wrap;html=1;" vertex="1" parent="1">
          <mxGeometry x="880" y="180" width="580" height="420" as="geometry" />
        </mxCell>
        <mxCell id="Rtu0G7_exBjI5bwSWY3L-1" value="Actor" style="shape=umlActor;verticalLabelPosition=bottom;verticalAlign=top;html=1;outlineConnect=0;" vertex="1" parent="1">
          <mxGeometry x="80" y="50" width="30" height="60" as="geometry" />
        </mxCell>
        <mxCell id="Rtu0G7_exBjI5bwSWY3L-3" value="выбор языка приложения" style="rounded=1;whiteSpace=wrap;html=1;" vertex="1" parent="1">
          <mxGeometry x="250" width="120" height="60" as="geometry" />
        </mxCell>
        <mxCell id="Rtu0G7_exBjI5bwSWY3L-4" value="авторизация" style="rounded=1;whiteSpace=wrap;html=1;" vertex="1" parent="1">
          <mxGeometry x="250" y="80" width="120" height="60" as="geometry" />
        </mxCell>
        <mxCell id="Rtu0G7_exBjI5bwSWY3L-5" value="меню поиска" style="rounded=1;whiteSpace=wrap;html=1;" vertex="1" parent="1">
          <mxGeometry x="380" y="270" width="120" height="60" as="geometry" />
        </mxCell>
        <mxCell id="Rtu0G7_exBjI5bwSWY3L-7" value="" style="endArrow=classic;html=1;rounded=0;entryX=0;entryY=0.5;entryDx=0;entryDy=0;exitX=0.5;exitY=0.5;exitDx=0;exitDy=0;exitPerimeter=0;" edge="1" parent="1" source="Rtu0G7_exBjI5bwSWY3L-1" target="Rtu0G7_exBjI5bwSWY3L-3">
          <mxGeometry width="50" height="50" relative="1" as="geometry">
            <mxPoint x="150" y="80" as="sourcePoint" />
            <mxPoint x="60" y="90" as="targetPoint" />
            <Array as="points">
              <mxPoint x="150" y="80" />
              <mxPoint x="150" y="30" />
            </Array>
          </mxGeometry>
        </mxCell>
        <mxCell id="Rtu0G7_exBjI5bwSWY3L-8" value="" style="endArrow=classic;html=1;rounded=0;exitX=0.5;exitY=0.5;exitDx=0;exitDy=0;exitPerimeter=0;entryX=0;entryY=0.5;entryDx=0;entryDy=0;" edge="1" parent="1" source="Rtu0G7_exBjI5bwSWY3L-1" target="Rtu0G7_exBjI5bwSWY3L-4">
          <mxGeometry width="50" height="50" relative="1" as="geometry">
            <mxPoint x="390" y="230" as="sourcePoint" />
            <mxPoint x="440" y="180" as="targetPoint" />
            <Array as="points">
              <mxPoint x="150" y="80" />
              <mxPoint x="150" y="110" />
            </Array>
          </mxGeometry>
        </mxCell>
        <mxCell id="Rtu0G7_exBjI5bwSWY3L-9" value="" style="endArrow=classic;html=1;rounded=0;exitX=0.5;exitY=0.5;exitDx=0;exitDy=0;exitPerimeter=0;entryX=0;entryY=0.5;entryDx=0;entryDy=0;" edge="1" parent="1" source="Rtu0G7_exBjI5bwSWY3L-1" target="Rtu0G7_exBjI5bwSWY3L-5">
          <mxGeometry width="50" height="50" relative="1" as="geometry">
            <mxPoint x="390" y="230" as="sourcePoint" />
            <mxPoint x="440" y="180" as="targetPoint" />
            <Array as="points">
              <mxPoint x="150" y="80" />
              <mxPoint x="150" y="190" />
              <mxPoint x="150" y="300" />
            </Array>
          </mxGeometry>
        </mxCell>
        <mxCell id="Rtu0G7_exBjI5bwSWY3L-10" value="авторизация через соцсети" style="rounded=1;whiteSpace=wrap;html=1;" vertex="1" parent="1">
          <mxGeometry x="440" y="-90" width="120" height="60" as="geometry" />
        </mxCell>
        <mxCell id="Rtu0G7_exBjI5bwSWY3L-11" value="" style="endArrow=classic;html=1;rounded=0;exitX=1;exitY=0.5;exitDx=0;exitDy=0;entryX=0;entryY=0.5;entryDx=0;entryDy=0;" edge="1" parent="1" source="Rtu0G7_exBjI5bwSWY3L-4" target="Rtu0G7_exBjI5bwSWY3L-10">
          <mxGeometry width="50" height="50" relative="1" as="geometry">
            <mxPoint x="390" y="230" as="sourcePoint" />
            <mxPoint x="440" y="180" as="targetPoint" />
            <Array as="points">
              <mxPoint x="400" y="110" />
              <mxPoint x="400" y="-60" />
            </Array>
          </mxGeometry>
        </mxCell>
        <mxCell id="Rtu0G7_exBjI5bwSWY3L-12" value="авторизация через google аккаунт" style="rounded=1;whiteSpace=wrap;html=1;" vertex="1" parent="1">
          <mxGeometry x="440" width="120" height="60" as="geometry" />
        </mxCell>
        <mxCell id="Rtu0G7_exBjI5bwSWY3L-13" value="" style="endArrow=classic;html=1;rounded=0;entryX=0;entryY=0.5;entryDx=0;entryDy=0;exitX=1;exitY=0.5;exitDx=0;exitDy=0;" edge="1" parent="1" source="Rtu0G7_exBjI5bwSWY3L-4" target="Rtu0G7_exBjI5bwSWY3L-12">
          <mxGeometry width="50" height="50" relative="1" as="geometry">
            <mxPoint x="340" y="390" as="sourcePoint" />
            <mxPoint x="390" y="340" as="targetPoint" />
            <Array as="points">
              <mxPoint x="400" y="110" />
              <mxPoint x="400" y="30" />
            </Array>
          </mxGeometry>
        </mxCell>
        <mxCell id="Rtu0G7_exBjI5bwSWY3L-14" value="авторизация через email" style="rounded=1;whiteSpace=wrap;html=1;" vertex="1" parent="1">
          <mxGeometry x="440" y="90" width="120" height="60" as="geometry" />
        </mxCell>
        <mxCell id="Rtu0G7_exBjI5bwSWY3L-15" value="" style="endArrow=classic;html=1;rounded=0;entryX=0;entryY=0.5;entryDx=0;entryDy=0;" edge="1" parent="1" target="Rtu0G7_exBjI5bwSWY3L-14">
          <mxGeometry width="50" height="50" relative="1" as="geometry">
            <mxPoint x="370" y="110" as="sourcePoint" />
            <mxPoint x="180" y="320" as="targetPoint" />
            <Array as="points">
              <mxPoint x="400" y="110" />
              <mxPoint x="400" y="120" />
            </Array>
          </mxGeometry>
        </mxCell>
        <mxCell id="Rtu0G7_exBjI5bwSWY3L-16" value="" style="endArrow=classic;html=1;rounded=0;exitX=1;exitY=0.5;exitDx=0;exitDy=0;" edge="1" parent="1" source="Rtu0G7_exBjI5bwSWY3L-12" target="Rtu0G7_exBjI5bwSWY3L-17">
          <mxGeometry width="50" height="50" relative="1" as="geometry">
            <mxPoint x="590" y="80" as="sourcePoint" />
            <mxPoint x="640" y="30" as="targetPoint" />
          </mxGeometry>
        </mxCell>
        <mxCell id="Rtu0G7_exBjI5bwSWY3L-17" value="личный кабинет" style="rounded=1;whiteSpace=wrap;html=1;" vertex="1" parent="1">
          <mxGeometry x="640" width="120" height="60" as="geometry" />
        </mxCell>
        <mxCell id="Rtu0G7_exBjI5bwSWY3L-19" value="" style="endArrow=classic;html=1;rounded=0;exitX=1;exitY=0.5;exitDx=0;exitDy=0;entryX=0;entryY=0.5;entryDx=0;entryDy=0;" edge="1" parent="1" source="Rtu0G7_exBjI5bwSWY3L-10" target="Rtu0G7_exBjI5bwSWY3L-17">
          <mxGeometry width="50" height="50" relative="1" as="geometry">
            <mxPoint x="660" y="-90" as="sourcePoint" />
            <mxPoint x="710" y="-140" as="targetPoint" />
            <Array as="points">
              <mxPoint x="600" y="-60" />
              <mxPoint x="600" y="30" />
            </Array>
          </mxGeometry>
        </mxCell>
        <mxCell id="Rtu0G7_exBjI5bwSWY3L-20" value="" style="endArrow=classic;html=1;rounded=0;exitX=1;exitY=0.5;exitDx=0;exitDy=0;entryX=0;entryY=0.5;entryDx=0;entryDy=0;" edge="1" parent="1" source="Rtu0G7_exBjI5bwSWY3L-14" target="Rtu0G7_exBjI5bwSWY3L-17">
          <mxGeometry width="50" height="50" relative="1" as="geometry">
            <mxPoint x="610" y="210" as="sourcePoint" />
            <mxPoint x="730" y="100" as="targetPoint" />
            <Array as="points">
              <mxPoint x="600" y="120" />
              <mxPoint x="600" y="30" />
            </Array>
          </mxGeometry>
        </mxCell>
        <mxCell id="Rtu0G7_exBjI5bwSWY3L-22" value="" style="endArrow=classic;html=1;rounded=0;exitX=1;exitY=0.5;exitDx=0;exitDy=0;entryX=1;entryY=0.5;entryDx=0;entryDy=0;" edge="1" parent="1" source="Rtu0G7_exBjI5bwSWY3L-17" target="Rtu0G7_exBjI5bwSWY3L-5">
          <mxGeometry width="50" height="50" relative="1" as="geometry">
            <mxPoint x="820" y="20" as="sourcePoint" />
            <mxPoint x="540" y="260" as="targetPoint" />
            <Array as="points">
              <mxPoint x="800" y="30" />
              <mxPoint x="800" y="200" />
              <mxPoint x="800" y="300" />
              <mxPoint x="600" y="300" />
            </Array>
          </mxGeometry>
        </mxCell>
        <mxCell id="Rtu0G7_exBjI5bwSWY3L-23" value="" style="endArrow=classic;html=1;rounded=0;exitX=1;exitY=0.5;exitDx=0;exitDy=0;entryX=1;entryY=0.5;entryDx=0;entryDy=0;" edge="1" parent="1" source="Rtu0G7_exBjI5bwSWY3L-10" target="Rtu0G7_exBjI5bwSWY3L-5">
          <mxGeometry width="50" height="50" relative="1" as="geometry">
            <mxPoint x="40" y="260" as="sourcePoint" />
            <mxPoint x="540" y="300" as="targetPoint" />
            <Array as="points">
              <mxPoint x="600" y="-60" />
              <mxPoint x="600" y="300" />
            </Array>
          </mxGeometry>
        </mxCell>
        <mxCell id="Rtu0G7_exBjI5bwSWY3L-24" value="" style="endArrow=classic;html=1;rounded=0;exitX=1;exitY=0.5;exitDx=0;exitDy=0;" edge="1" parent="1" source="Rtu0G7_exBjI5bwSWY3L-3">
          <mxGeometry width="50" height="50" relative="1" as="geometry">
            <mxPoint x="20" y="280" as="sourcePoint" />
            <mxPoint x="440" y="30" as="targetPoint" />
          </mxGeometry>
        </mxCell>
        <mxCell id="Rtu0G7_exBjI5bwSWY3L-33" value="&lt;div&gt;получить результаты поиска&lt;/div&gt;" style="rounded=1;whiteSpace=wrap;html=1;" vertex="1" parent="1">
          <mxGeometry x="380" y="740" width="120" height="60" as="geometry" />
        </mxCell>
        <mxCell id="Rtu0G7_exBjI5bwSWY3L-36" value="" style="endArrow=classic;html=1;rounded=0;exitX=0.5;exitY=1;exitDx=0;exitDy=0;entryX=0.5;entryY=0;entryDx=0;entryDy=0;" edge="1" parent="1" source="Rtu0G7_exBjI5bwSWY3L-33" target="Rtu0G7_exBjI5bwSWY3L-37">
          <mxGeometry width="50" height="50" relative="1" as="geometry">
            <mxPoint x="140" y="790" as="sourcePoint" />
            <mxPoint x="214" y="897" as="targetPoint" />
            <Array as="points">
              <mxPoint x="440" y="850" />
              <mxPoint x="200" y="850" />
            </Array>
          </mxGeometry>
        </mxCell>
        <mxCell id="Rtu0G7_exBjI5bwSWY3L-37" value="получить результаты на email" style="rounded=1;whiteSpace=wrap;html=1;" vertex="1" parent="1">
          <mxGeometry x="140" y="895" width="120" height="60" as="geometry" />
        </mxCell>
        <mxCell id="Rtu0G7_exBjI5bwSWY3L-38" value="запись результатов поиска в файловое хранилище" style="rounded=1;whiteSpace=wrap;html=1;" vertex="1" parent="1">
          <mxGeometry x="380" y="895" width="120" height="60" as="geometry" />
        </mxCell>
        <mxCell id="Rtu0G7_exBjI5bwSWY3L-39" value="" style="endArrow=classic;html=1;rounded=0;exitX=0.5;exitY=1;exitDx=0;exitDy=0;entryX=0.5;entryY=0;entryDx=0;entryDy=0;" edge="1" parent="1" source="Rtu0G7_exBjI5bwSWY3L-33" target="Rtu0G7_exBjI5bwSWY3L-38">
          <mxGeometry width="50" height="50" relative="1" as="geometry">
            <mxPoint x="90" y="790" as="sourcePoint" />
            <mxPoint x="140" y="740" as="targetPoint" />
          </mxGeometry>
        </mxCell>
        <mxCell id="Rtu0G7_exBjI5bwSWY3L-41" value="" style="endArrow=classic;html=1;rounded=0;exitX=0.5;exitY=1;exitDx=0;exitDy=0;entryX=0;entryY=0.5;entryDx=0;entryDy=0;" edge="1" parent="1" source="Rtu0G7_exBjI5bwSWY3L-33" target="Rtu0G7_exBjI5bwSWY3L-60">
          <mxGeometry width="50" height="50" relative="1" as="geometry">
            <mxPoint x="140" y="770" as="sourcePoint" />
            <mxPoint x="680" y="895" as="targetPoint" />
            <Array as="points">
              <mxPoint x="440" y="850" />
              <mxPoint x="680" y="850" />
              <mxPoint x="680" y="1000" />
            </Array>
          </mxGeometry>
        </mxCell>
        <mxCell id="Rtu0G7_exBjI5bwSWY3L-43" value="АЭРОФЛОТ" style="rounded=1;whiteSpace=wrap;html=1;" vertex="1" parent="1">
          <mxGeometry x="1090" y="300" width="120" height="60" as="geometry" />
        </mxCell>
        <mxCell id="Rtu0G7_exBjI5bwSWY3L-44" value="авиакомпания 3" style="rounded=1;whiteSpace=wrap;html=1;" vertex="1" parent="1">
          <mxGeometry x="920" y="390" width="120" height="60" as="geometry" />
        </mxCell>
        <mxCell id="Rtu0G7_exBjI5bwSWY3L-45" value="S7" style="rounded=1;whiteSpace=wrap;html=1;" vertex="1" parent="1">
          <mxGeometry x="920" y="300" width="120" height="60" as="geometry" />
        </mxCell>
        <mxCell id="Rtu0G7_exBjI5bwSWY3L-46" value="Уральские авиалинии" style="rounded=1;whiteSpace=wrap;html=1;" vertex="1" parent="1">
          <mxGeometry x="1260" y="300" width="120" height="60" as="geometry" />
        </mxCell>
        <mxCell id="Rtu0G7_exBjI5bwSWY3L-47" value="skyscanner.com" style="rounded=1;whiteSpace=wrap;html=1;" vertex="1" parent="1">
          <mxGeometry x="1090" y="390" width="120" height="60" as="geometry" />
        </mxCell>
        <mxCell id="Rtu0G7_exBjI5bwSWY3L-48" value="aviaseils" style="rounded=1;whiteSpace=wrap;html=1;" vertex="1" parent="1">
          <mxGeometry x="1260" y="390" width="120" height="60" as="geometry" />
        </mxCell>
        <mxCell id="Rtu0G7_exBjI5bwSWY3L-49" value="авиакомпания 4" style="rounded=1;whiteSpace=wrap;html=1;" vertex="1" parent="1">
          <mxGeometry x="920" y="480" width="120" height="60" as="geometry" />
        </mxCell>
        <mxCell id="Rtu0G7_exBjI5bwSWY3L-50" value="tutu.ru" style="rounded=1;whiteSpace=wrap;html=1;" vertex="1" parent="1">
          <mxGeometry x="1090" y="480" width="120" height="60" as="geometry" />
        </mxCell>
        <mxCell id="Rtu0G7_exBjI5bwSWY3L-51" value="" style="rounded=1;whiteSpace=wrap;html=1;" vertex="1" parent="1">
          <mxGeometry x="1260" y="480" width="120" height="60" as="geometry" />
        </mxCell>
        <mxCell id="Rtu0G7_exBjI5bwSWY3L-53" value="&lt;div&gt;Внешние акторы, сайты авиакомпаний, и существующие известные агрегаторы по поиску дешевых авиабилетов&lt;/div&gt;&lt;div&gt;&lt;br&gt;&lt;/div&gt;" style="text;html=1;strokeColor=none;fillColor=none;align=center;verticalAlign=middle;whiteSpace=wrap;rounded=0;" vertex="1" parent="1">
          <mxGeometry x="980" y="170" width="360" height="110" as="geometry" />
        </mxCell>
        <mxCell id="Rtu0G7_exBjI5bwSWY3L-54" value="" style="endArrow=classic;html=1;rounded=0;exitX=0.5;exitY=1;exitDx=0;exitDy=0;" edge="1" parent="1" source="Rtu0G7_exBjI5bwSWY3L-5">
          <mxGeometry width="50" height="50" relative="1" as="geometry">
            <mxPoint x="450" y="450" as="sourcePoint" />
            <mxPoint x="880" y="400" as="targetPoint" />
            <Array as="points">
              <mxPoint x="440" y="400" />
            </Array>
          </mxGeometry>
        </mxCell>
        <mxCell id="Rtu0G7_exBjI5bwSWY3L-55" value="" style="endArrow=classic;html=1;rounded=0;exitX=0.548;exitY=1;exitDx=0;exitDy=0;exitPerimeter=0;entryX=0.5;entryY=0;entryDx=0;entryDy=0;" edge="1" parent="1" source="Rtu0G7_exBjI5bwSWY3L-52" target="Rtu0G7_exBjI5bwSWY3L-33">
          <mxGeometry width="50" height="50" relative="1" as="geometry">
            <mxPoint x="670" y="640" as="sourcePoint" />
            <mxPoint x="720" y="590" as="targetPoint" />
            <Array as="points">
              <mxPoint x="1198" y="680" />
              <mxPoint x="440" y="680" />
            </Array>
          </mxGeometry>
        </mxCell>
        <mxCell id="Rtu0G7_exBjI5bwSWY3L-58" value="API" style="rounded=1;whiteSpace=wrap;html=1;" vertex="1" parent="1">
          <mxGeometry x="600" y="370" width="120" height="60" as="geometry" />
        </mxCell>
        <mxCell id="Rtu0G7_exBjI5bwSWY3L-59" value="Actor" style="shape=umlActor;verticalLabelPosition=bottom;verticalAlign=top;html=1;outlineConnect=0;" vertex="1" parent="1">
          <mxGeometry x="1170" y="90" width="30" height="60" as="geometry" />
        </mxCell>
        <mxCell id="Rtu0G7_exBjI5bwSWY3L-60" value="" style="rounded=1;whiteSpace=wrap;html=1;" vertex="1" parent="1">
          <mxGeometry x="880" y="789" width="580" height="420" as="geometry" />
        </mxCell>
        <mxCell id="Rtu0G7_exBjI5bwSWY3L-61" value="АЭРОФЛОТ" style="rounded=1;whiteSpace=wrap;html=1;" vertex="1" parent="1">
          <mxGeometry x="1090" y="909" width="120" height="60" as="geometry" />
        </mxCell>
        <mxCell id="Rtu0G7_exBjI5bwSWY3L-62" value="авиакомпания 3" style="rounded=1;whiteSpace=wrap;html=1;" vertex="1" parent="1">
          <mxGeometry x="920" y="999" width="120" height="60" as="geometry" />
        </mxCell>
        <mxCell id="Rtu0G7_exBjI5bwSWY3L-63" value="S7" style="rounded=1;whiteSpace=wrap;html=1;" vertex="1" parent="1">
          <mxGeometry x="920" y="909" width="120" height="60" as="geometry" />
        </mxCell>
        <mxCell id="Rtu0G7_exBjI5bwSWY3L-64" value="Уральские авиалинии" style="rounded=1;whiteSpace=wrap;html=1;" vertex="1" parent="1">
          <mxGeometry x="1260" y="909" width="120" height="60" as="geometry" />
        </mxCell>
        <mxCell id="Rtu0G7_exBjI5bwSWY3L-65" value="skyscanner.com" style="rounded=1;whiteSpace=wrap;html=1;" vertex="1" parent="1">
          <mxGeometry x="1090" y="999" width="120" height="60" as="geometry" />
        </mxCell>
        <mxCell id="Rtu0G7_exBjI5bwSWY3L-66" value="aviaseils" style="rounded=1;whiteSpace=wrap;html=1;" vertex="1" parent="1">
          <mxGeometry x="1260" y="1000" width="120" height="59" as="geometry" />
        </mxCell>
        <mxCell id="Rtu0G7_exBjI5bwSWY3L-67" value="авиакомпания 4" style="rounded=1;whiteSpace=wrap;html=1;" vertex="1" parent="1">
          <mxGeometry x="920" y="1089" width="120" height="60" as="geometry" />
        </mxCell>
        <mxCell id="Rtu0G7_exBjI5bwSWY3L-68" value="tutu.ru" style="rounded=1;whiteSpace=wrap;html=1;" vertex="1" parent="1">
          <mxGeometry x="1090" y="1089" width="120" height="60" as="geometry" />
        </mxCell>
        <mxCell id="Rtu0G7_exBjI5bwSWY3L-69" value="" style="rounded=1;whiteSpace=wrap;html=1;" vertex="1" parent="1">
          <mxGeometry x="1260" y="1089" width="120" height="60" as="geometry" />
        </mxCell>
        <mxCell id="Rtu0G7_exBjI5bwSWY3L-70" value="&lt;div&gt;Внешние акторы, сайты авиакомпаний, и существующие известные агрегаторы по поиску дешевых авиабилетов&lt;/div&gt;&lt;div&gt;&lt;br&gt;&lt;/div&gt;" style="text;html=1;strokeColor=none;fillColor=none;align=center;verticalAlign=middle;whiteSpace=wrap;rounded=0;" vertex="1" parent="1">
          <mxGeometry x="990" y="780" width="360" height="110" as="geometry" />
        </mxCell>
        <mxCell id="Rtu0G7_exBjI5bwSWY3L-71" value="купить авиабилет" style="rounded=1;whiteSpace=wrap;html=1;" vertex="1" parent="1">
          <mxGeometry x="620" y="890" width="120" height="60" as="geometry" />
        </mxCell>
        <mxCell id="Rtu0G7_exBjI5bwSWY3L-72" value="Actor" style="shape=umlActor;verticalLabelPosition=bottom;verticalAlign=top;html=1;outlineConnect=0;" vertex="1" parent="1">
          <mxGeometry x="920" y="90" width="30" height="60" as="geometry" />
        </mxCell>
        <mxCell id="Rtu0G7_exBjI5bwSWY3L-73" value="Actor" style="shape=umlActor;verticalLabelPosition=bottom;verticalAlign=top;html=1;outlineConnect=0;" vertex="1" parent="1">
          <mxGeometry x="990" y="90" width="30" height="60" as="geometry" />
        </mxCell>
        <mxCell id="Rtu0G7_exBjI5bwSWY3L-74" value="Actor" style="shape=umlActor;verticalLabelPosition=bottom;verticalAlign=top;html=1;outlineConnect=0;" vertex="1" parent="1">
          <mxGeometry x="1060" y="90" width="30" height="60" as="geometry" />
        </mxCell>
        <mxCell id="Rtu0G7_exBjI5bwSWY3L-75" value="Actor" style="shape=umlActor;verticalLabelPosition=bottom;verticalAlign=top;html=1;outlineConnect=0;" vertex="1" parent="1">
          <mxGeometry x="1120" y="90" width="30" height="60" as="geometry" />
        </mxCell>
        <mxCell id="Rtu0G7_exBjI5bwSWY3L-76" value="Actor" style="shape=umlActor;verticalLabelPosition=bottom;verticalAlign=top;html=1;outlineConnect=0;" vertex="1" parent="1">
          <mxGeometry x="1220" y="90" width="30" height="60" as="geometry" />
        </mxCell>
        <mxCell id="Rtu0G7_exBjI5bwSWY3L-77" value="Actor" style="shape=umlActor;verticalLabelPosition=bottom;verticalAlign=top;html=1;outlineConnect=0;" vertex="1" parent="1">
          <mxGeometry x="1270" y="90" width="30" height="60" as="geometry" />
        </mxCell>
        <mxCell id="Rtu0G7_exBjI5bwSWY3L-78" value="Actor" style="shape=umlActor;verticalLabelPosition=bottom;verticalAlign=top;html=1;outlineConnect=0;" vertex="1" parent="1">
          <mxGeometry x="1330" y="90" width="30" height="60" as="geometry" />
        </mxCell>
        <mxCell id="Rtu0G7_exBjI5bwSWY3L-79" value="Actor" style="shape=umlActor;verticalLabelPosition=bottom;verticalAlign=top;html=1;outlineConnect=0;" vertex="1" parent="1">
          <mxGeometry x="1390" y="90" width="30" height="60" as="geometry" />
        </mxCell>
        <mxCell id="Rtu0G7_exBjI5bwSWY3L-85" value="Пользователь" style="text;html=1;strokeColor=none;fillColor=none;align=center;verticalAlign=middle;whiteSpace=wrap;rounded=0;" vertex="1" parent="1">
          <mxGeometry x="65" y="10" width="60" height="30" as="geometry" />
        </mxCell>
        <mxCell id="Rtu0G7_exBjI5bwSWY3L-86" value="Внешние акторы (API на которых приложение ищет авиабилеты." style="text;html=1;strokeColor=none;fillColor=none;align=center;verticalAlign=middle;whiteSpace=wrap;rounded=0;" vertex="1" parent="1">
          <mxGeometry x="1020" y="40" width="310" height="40" as="geometry" />
        </mxCell>
        <mxCell id="Rtu0G7_exBjI5bwSWY3L-87" style="edgeStyle=orthogonalEdgeStyle;rounded=0;orthogonalLoop=1;jettySize=auto;html=1;exitX=0;exitY=0.25;exitDx=0;exitDy=0;entryX=0;entryY=0;entryDx=0;entryDy=0;" edge="1" parent="1" source="Rtu0G7_exBjI5bwSWY3L-86" target="Rtu0G7_exBjI5bwSWY3L-86">
          <mxGeometry relative="1" as="geometry" />
        </mxCell>
        <mxCell id="Rtu0G7_exBjI5bwSWY3L-88" value="Сайты авиакомпаний, у которых происходит онлайн покупка авиабилетов" style="text;html=1;strokeColor=none;fillColor=none;align=center;verticalAlign=middle;whiteSpace=wrap;rounded=0;" vertex="1" parent="1">
          <mxGeometry x="1025" y="729" width="300" height="60" as="geometry" />
        </mxCell>
        <mxCell id="Rtu0G7_exBjI5bwSWY3L-89" value="база данных пользователей" style="rounded=1;whiteSpace=wrap;html=1;" vertex="1" parent="1">
          <mxGeometry x="850" y="-120" width="120" height="60" as="geometry" />
        </mxCell>
        <mxCell id="Rtu0G7_exBjI5bwSWY3L-90" value="" style="endArrow=classic;startArrow=classic;html=1;rounded=0;exitX=0.5;exitY=0;exitDx=0;exitDy=0;entryX=0;entryY=0.5;entryDx=0;entryDy=0;" edge="1" parent="1" source="Rtu0G7_exBjI5bwSWY3L-17" target="Rtu0G7_exBjI5bwSWY3L-89">
          <mxGeometry width="50" height="50" relative="1" as="geometry">
            <mxPoint x="700" y="-80" as="sourcePoint" />
            <mxPoint x="750" y="-130" as="targetPoint" />
            <Array as="points">
              <mxPoint x="700" y="-90" />
            </Array>
          </mxGeometry>
        </mxCell>
        <mxCell id="Rtu0G7_exBjI5bwSWY3L-91" value="" style="endArrow=classic;html=1;rounded=0;exitX=0;exitY=0.5;exitDx=0;exitDy=0;entryX=0.583;entryY=-0.033;entryDx=0;entryDy=0;entryPerimeter=0;" edge="1" parent="1" source="Rtu0G7_exBjI5bwSWY3L-37" target="Rtu0G7_exBjI5bwSWY3L-89">
          <mxGeometry width="50" height="50" relative="1" as="geometry">
            <mxPoint x="80" y="820" as="sourcePoint" />
            <mxPoint x="130" y="770" as="targetPoint" />
            <Array as="points">
              <mxPoint x="40" y="925" />
              <mxPoint x="40" y="-160" />
              <mxPoint x="390" y="-160" />
              <mxPoint x="920" y="-160" />
            </Array>
          </mxGeometry>
        </mxCell>
        <mxCell id="Rtu0G7_exBjI5bwSWY3L-93" value="" style="endArrow=none;html=1;rounded=0;entryX=0.5;entryY=1;entryDx=0;entryDy=0;" edge="1" parent="1" target="Rtu0G7_exBjI5bwSWY3L-38">
          <mxGeometry width="50" height="50" relative="1" as="geometry">
            <mxPoint x="40" y="925" as="sourcePoint" />
            <mxPoint x="440" y="1075" as="targetPoint" />
            <Array as="points">
              <mxPoint x="40" y="1000" />
              <mxPoint x="440" y="1000" />
            </Array>
          </mxGeometry>
        </mxCell>
        <mxCell id="Rtu0G7_exBjI5bwSWY3L-94" value="Actor" style="shape=umlActor;verticalLabelPosition=bottom;verticalAlign=top;html=1;outlineConnect=0;" vertex="1" parent="1">
          <mxGeometry x="1120" y="-270" width="30" height="60" as="geometry" />
        </mxCell>
        <mxCell id="Rtu0G7_exBjI5bwSWY3L-95" value="&lt;div&gt;Администратор&lt;/div&gt;" style="text;html=1;strokeColor=none;fillColor=none;align=center;verticalAlign=middle;whiteSpace=wrap;rounded=0;" vertex="1" parent="1">
          <mxGeometry x="1105" y="-300" width="60" height="30" as="geometry" />
        </mxCell>
        <mxCell id="Rtu0G7_exBjI5bwSWY3L-96" value="авторизация админстратора" style="rounded=1;whiteSpace=wrap;html=1;" vertex="1" parent="1">
          <mxGeometry x="1270" y="-270" width="120" height="60" as="geometry" />
        </mxCell>
        <mxCell id="Rtu0G7_exBjI5bwSWY3L-97" value="" style="endArrow=classic;startArrow=classic;html=1;rounded=0;entryX=1;entryY=0.5;entryDx=0;entryDy=0;exitX=1;exitY=0.5;exitDx=0;exitDy=0;" edge="1" parent="1" source="Rtu0G7_exBjI5bwSWY3L-89" target="Rtu0G7_exBjI5bwSWY3L-96">
          <mxGeometry width="50" height="50" relative="1" as="geometry">
            <mxPoint x="970" y="-200" as="sourcePoint" />
            <mxPoint x="1020" y="-250" as="targetPoint" />
            <Array as="points">
              <mxPoint x="1440" y="-90" />
              <mxPoint x="1440" y="-240" />
            </Array>
          </mxGeometry>
        </mxCell>
        <mxCell id="Rtu0G7_exBjI5bwSWY3L-98" value="" style="endArrow=classic;html=1;rounded=0;exitX=0.5;exitY=0.5;exitDx=0;exitDy=0;exitPerimeter=0;entryX=0;entryY=0.5;entryDx=0;entryDy=0;" edge="1" parent="1" source="Rtu0G7_exBjI5bwSWY3L-94" target="Rtu0G7_exBjI5bwSWY3L-96">
          <mxGeometry width="50" height="50" relative="1" as="geometry">
            <mxPoint x="1000" y="-300" as="sourcePoint" />
            <mxPoint x="1050" y="-350" as="targetPoint" />
          </mxGeometry>
        </mxCell>
      </root>
    </mxGraphModel>
  </diagram>
</mxfile>
